#!OML:ASF E:\Mandelcareful walks\Project 1\Capture day 1\Session 1\Subject1.ASF
:FULLY-SPECIFIED
:DEGREES
209
root 15.7728 15.4843 2.76595 113.946 87.2624 118.437
lowerback 26.9102 -2.19543 -4.92673
upperback 9.67841 -3.1684 -0.206124
thorax -3.79429 -1.26256 3.48402
lowerneck -23.2877 6.64414 1.43672
upperneck 23.5729 11.3664 -7.8103
head 12.2332 4.23754 -1.16928
rclavicle 7.65321e-015 -7.7526e-015
rhumerus -44.424 16.5714 -79.6859
rradius 56.6548
rwrist -20.9553
rhand -10.7213 -20.2558
rfingers 7.12502
rthumb 15.289 -49.6707
lclavicle 7.65321e-015 -7.7526e-015
lhumerus -14.6758 -30.4258 67.7309
lradius 73.1393
lwrist 20.5236
lhand -30.9776 -19.0842
lfingers 7.12502
lthumb -4.26152 10.8529
rfemur -44.2939 -12.0246 13.47
rtibia 45.7585
rfoot 2.57639 -7.85974
rtoes -14.5059
lfemur -17.275 9.39146 -26.142
ltibia 59.3291
lfoot -28.689 -0.407066
ltoes 16.9526
210
root 16.1972 15.5956 2.79697 125.262 86.6781 129.349
lowerback 26.2219 -2.72954 -4.77073
upperback 9.77498 -3.78448 -0.298175
thorax -3.32146 -1.57816 3.4289
lowerneck -23.1018 6.60823 1.38804
upperneck 23.3121 11.3588 -8.01164
head 12.1087 4.22068 -1.24282
rclavicle -1.60022e-014 1.76918e-014
rhumerus -45.1086 16.3762 -79.8237
rradius 57.7099
rwrist -21.8166
rhand -10.1664 -21.0142
rfingers 7.12502
rthumb 15.8234 -50.3875
lclavicle -1.60022e-014 1.76918e-014
lhumerus -14.4809 -31.9336 67.8253
lradius 77.502
lwrist 20.4212
lhand -31.166 -22.2232
lfingers 7.12502
lthumb -4.44342 7.71014
rfemur -44.0441 -12.5338 14.1842
rtibia 42.1075
rfoot 5.55743 -6.82983
rtoes -16.6037
lfemur -15.4807 8.92048 -25.9454
ltibia 58.5
lfoot -28.082 -0.646414
ltoes 15.8172
211
root 16.6123 15.6868 2.83687 131.807 85.9236 135.433
lowerback 25.7017 -3.1974 -4.71655
upperback 9.62567 -4.3846 -0.43934
thorax -3.20148 -1.88031 3.38146
lowerneck -22.3252 6.61929 1.64083
upperneck 23.0196 11.3745 -8.42428
head 11.8941 4.239 -1.45294
rclavicle -1.42131e-014 1.39149e-015
rhumerus -45.9611 15.9537 -80.0722
rradius 58.6192
rwrist -22.1406
rhand -9.48184 -21.3717
rfingers 7.12502
rthumb 16.4826 -50.6916
lclavicle -1.42131e-014 1.39149e-015
lhumerus -14.6908 -33.2468 68.2416
lradius 81.1768
lwrist 20.0856
lhand -31.3941 -25.7827
lfingers 7.12502
lthumb -4.66372 4.14594
rfemur -43.8875 -13.5165 15.1762
rtibia 39.6625
rfoot 8.37038 -7.93957
rtoes -20.1749
lfemur -14.3132 8.63539 -25.6912
ltibia 58.507
lfoot -26.4868 -1.31748
ltoes 15.2224
212
root 17.0411 15.7658 2.87681 130.753 85.5555 134.198
lowerback 25.1777 -3.39165 -4.74196
upperback 9.57573 -4.6453 -0.617025
thorax -2.99581 -2.01867 3.2417
lowerneck -21.9348 6.59136 1.65846
upperneck 23.0144 11.3605 -8.51594
head 11.8241 4.23906 -1.502
rclavicle 5.09883e-014 1.13307e-014
rhumerus -46.5896 15.4096 -80.3135
rradius 59.1487
rwrist -22.0971
rhand -9.20513 -21.046
rfingers 7.12502
rthumb 16.749 -50.3435
lclavicle 5.09883e-014 1.13307e-014
lhumerus -15.0905 -34.3662 68.9766
lradius 83.8509
lwrist 18.2762
lhand -31.5035 -26.8104
lfingers 7.12502
lthumb -4.76928 3.11589
rfemur -43.196 -14.265 16.1981
rtibia 38.3302
rfoot 9.758 -9.97708
rtoes -20.3077
lfemur -13.2914 9.20898 -25.1696
ltibia 59.3493
lfoot -24.0942 -2.44284
ltoes 14.355
213
root 17.4268 15.8015 2.93841 136.804 84.5261 139.709
lowerback 24.7121 -3.77441 -4.85019
upperback 9.45439 -5.16035 -0.621813
thorax -2.84905 -2.28408 3.40122
lowerneck -22.125 6.44819 1.29301
upperneck 23.3328 11.2683 -8.29831
head 11.9404 4.17525 -1.37453
rclavicle 2.8128e-014 -3.39922e-014
rhumerus -46.7219 14.7038 -80.3907
rradius 59.3935
rwrist -21.7885
rhand -9.01516 -21.008
rfingers 7.12502
rthumb 16.9318 -50.2899
lclavicle 2.8128e-014 -3.39922e-014
lhumerus -15.2265 -35.2782 69.7474
lradius 86.0147
lwrist 17.2746
lhand -30.9283 -29.6193
lfingers 7.12502
lthumb -4.2139 0.318773
rfemur -42.3624 -15.3735 16.8717
rtibia 37.8148
rfoot 10.2036 -12.3073
rtoes -18.7345
lfemur -13.5555 9.48246 -24.5858
ltibia 61.3204
lfoot -20.7579 -3.95395
ltoes 11.9677
